<svg width="103" height="30" viewBox="0 0 103 30" fill="none" xmlns="http://www.w3.org/2000/svg">
<path d="M100.132 9.05145L41.5725 0.667969L47.575 9.05145H100.132Z" fill="black"/>
<path d="M38.0128 23.047L47.1562 11.13H102.016L38.0128 23.047Z" fill="black"/>
<path d="M52.1816 29.4905L53.5077 22.7006L96.0311 13.1573L52.1816 29.4905Z" fill="black"/>
<path d="M11.8052 20.8624L36.7379 22.1986L11.2784 23.4768L11.8052 20.8624Z" fill="black"/>
<path d="M0.158203 12.961L43.0588 10.5209L1.67993 9.59133L0.158203 12.961Z" fill="black"/>
<path d="M15.0643 4.34509L16.014 2.41254L40.5393 3.0253L15.0643 4.34509Z" fill="black"/>
<path d="M38.0128 23.0475L47.1562 11.1305H102.016L38.0128 23.0475Z" fill="black"/>
<path d="M0.158203 12.9615L43.0588 10.5214L1.67993 9.59183L0.158203 12.9615Z" fill="black"/>
</svg>
