<svg width="93" height="45" viewBox="0 0 93 45" fill="none" xmlns="http://www.w3.org/2000/svg">
<path fill-rule="evenodd" clip-rule="evenodd" d="M0 43.0703L28.6365 24.9353V1.36059H42.808V15.8678L67.6047 0V43.0703H57.2717V24.9353L42.8068 33.5515V43.0716H0V43.0703ZM92.9964 24.5978C92.8564 27.7835 92.225 30.4796 91.2799 32.7587H83.0352C83.7837 30.3843 84.3148 27.6631 84.4367 24.5978H92.9952H92.9964ZM82.0273 35.4785H89.8965C84.8109 43.785 75.3121 45 75.3121 45C75.3121 45 79.3161 41.8262 82.0273 35.4785ZM82.9616 24.5991C82.8373 27.7584 82.2856 30.4624 81.5046 32.7587H73.5413V24.5978H82.9616V24.5991ZM80.3965 35.4785H73.5401V43.6394C73.5401 43.6394 77.5996 41.3021 80.3965 35.4785ZM92.9988 21.8779C92.8781 18.7001 92.3276 16.0041 91.4935 13.7171H83.0558C83.8653 16.3522 84.3302 19.0998 84.4367 21.8779H93H92.9988ZM75.3121 1.02309C75.3121 1.02309 79.3656 4.43647 82.078 10.9972H90.2743C85.295 1.78941 75.3121 1.02309 75.3121 1.02309ZM73.5413 10.9972H80.0971C77.3207 5.5575 73.5413 2.83632 73.5413 2.83632V10.9972ZM81.297 13.7171H73.5413V21.8779H82.9568C82.8303 19.074 82.269 16.3142 81.297 13.7171Z" fill="black"/>
</svg>