<svg width="28" height="28" viewBox="0 0 28 28" fill="none" xmlns="http://www.w3.org/2000/svg">
<rect x="0.349609" width="27.6508" height="27.6508" rx="3" fill="#FF0000"/>
<path d="M17.011 8.50784H12.048C10.6775 8.50784 9.56653 9.61884 9.56653 10.9893V15.9523C9.56653 17.3228 10.6775 18.4338 12.048 18.4338H17.011C18.3815 18.4338 19.4924 17.3228 19.4924 15.9523V10.9893C19.4924 9.61884 18.3815 8.50784 17.011 8.50784Z" stroke="white" stroke-linecap="round" stroke-linejoin="round"/>
<path d="M15.9321 13.263C15.9759 13.558 15.9255 13.8593 15.7881 14.1241C15.6507 14.3888 15.4334 14.6035 15.167 14.7376C14.9006 14.8717 14.5987 14.9183 14.3042 14.8709C14.0097 14.8236 13.7377 14.6845 13.5268 14.4736C13.3159 14.2627 13.1769 13.9907 13.1295 13.6962C13.0821 13.4018 13.1288 13.0999 13.2629 12.8335C13.397 12.567 13.6116 12.3497 13.8764 12.2123C14.1411 12.075 14.4424 12.0246 14.7375 12.0683C15.0384 12.1129 15.317 12.2532 15.5321 12.4683C15.7473 12.6834 15.8875 12.962 15.9321 13.263Z" stroke="white" stroke-linecap="round" stroke-linejoin="round"/>
</svg>
