<svg width="29" height="28" viewBox="0 0 29 28" fill="none" xmlns="http://www.w3.org/2000/svg">
<rect x="0.449219" width="27.6508" height="27.6508" rx="3" fill="#FF0000"/>
<path d="M15.9058 12.1945C16.6955 12.1945 17.4529 12.5083 18.0113 13.0667C18.5697 13.625 18.8834 14.3824 18.8834 15.1721V18.6459H16.8983V15.1721C16.8983 14.9089 16.7938 14.6564 16.6076 14.4703C16.4215 14.2841 16.1691 14.1796 15.9058 14.1796C15.6426 14.1796 15.3901 14.2841 15.204 14.4703C15.0179 14.6564 14.9133 14.9089 14.9133 15.1721V18.6459H12.9283V15.1721C12.9283 14.3824 13.242 13.625 13.8004 13.0667C14.3588 12.5083 15.1161 12.1945 15.9058 12.1945V12.1945Z" stroke="white" stroke-linecap="round" stroke-linejoin="round"/>
<path d="M10.9422 12.6922H8.95715V18.6473H10.9422V12.6922Z" stroke="white" stroke-linecap="round" stroke-linejoin="round"/>
<path d="M9.94967 11.2027C10.4978 11.2027 10.9422 10.7583 10.9422 10.2102C10.9422 9.66202 10.4978 9.21765 9.94967 9.21765C9.40152 9.21765 8.95715 9.66202 8.95715 10.2102C8.95715 10.7583 9.40152 11.2027 9.94967 11.2027Z" stroke="white" stroke-linecap="round" stroke-linejoin="round"/>
</svg>
